<svg id="Layer_1" data-name="Layer 1" xmlns="http://www.w3.org/2000/svg" viewBox="0 0 276.53 37.03"><defs><style>.cls-1,.cls-3,.cls-4,.cls-5,.cls-6,.cls-7,.cls-8,.cls-9{isolation:isolate;}.cls-1{font-size:3.81px;}.cls-1,.cls-10,.cls-11,.cls-2,.cls-3,.cls-5,.cls-6,.cls-7,.cls-8,.cls-9{fill:#fff;}.cls-1,.cls-11,.cls-3,.cls-5,.cls-6,.cls-7,.cls-8,.cls-9{font-family:SourceSansPro-Bold, Source Sans Pro;font-weight:700;}.cls-3{font-size:7.4px;}.cls-5{font-size:2.96px;}.cls-6{font-size:7.41px;}.cls-7{font-size:2.97px;}.cls-8{font-size:3.08px;}.cls-9{font-size:7.37px;}.cls-10{font-size:7.35px;font-family:SourceSansPro-Black, Source Sans Pro;font-weight:800;}.cls-11{font-size:3.06px;}</style></defs><title>fxtm-awards-01</title><text class="cls-1" transform="translate(194.83 35.72)">WORLD FINANCE</text><path class="cls-2" d="M197.81,26.25c-1,0-1.9.26-2.9.23h0l.1.08a6,6,0,0,0,2.75,1.65,3.17,3.17,0,0,0,3-.45A3.22,3.22,0,0,0,197.81,26.25Z"/><path class="cls-2" d="M197.73,25.41a2.62,2.62,0,0,0-2.33-1.72c-.91-.06-1.79,0-2.7-.1a5,5,0,0,0,2.23,1.92A3,3,0,0,0,197.73,25.41Z"/><path class="cls-2" d="M195.44,23a2.11,2.11,0,0,0-1.78-1.85c-.81-.16-1.63-.16-2.42-.39a3.94,3.94,0,0,0,1.64,2A2.69,2.69,0,0,0,195.44,23Z"/><path class="cls-2" d="M193.65,20.41a1.79,1.79,0,0,0-1.24-2c-.71-.24-1.44-.34-2.11-.64a3.29,3.29,0,0,0,1.07,2.08A2.31,2.31,0,0,0,193.65,20.41Z"/><path class="cls-2" d="M192.43,17.65a1.6,1.6,0,0,0-.74-2,16.75,16.75,0,0,1-1.76-.85,3,3,0,0,0,.54,2.1A1.92,1.92,0,0,0,192.43,17.65Z"/><path class="cls-2" d="M191.77,14.92a1.57,1.57,0,0,0-.25-2,13.58,13.58,0,0,1-1.39-1,3,3,0,0,0,.05,2.06A1.52,1.52,0,0,0,191.77,14.92Z"/><path class="cls-2" d="M191.67,12.18c.45-.69.63-1.37.18-1.91a10.77,10.77,0,0,1-1-1.13h0a3.94,3.94,0,0,0-.18.48,2.9,2.9,0,0,0-.23,1.51A1.21,1.21,0,0,0,191.67,12.18Z"/><path class="cls-2" d="M192.09,9.48c.55-.62.86-1.26.6-1.84a7.26,7.26,0,0,1-.6-1.22,3.79,3.79,0,0,0-.82,1.89,1,1,0,0,0,.8,1.17Z"/><path class="cls-2" d="M194,5.06a7.81,7.81,0,0,1-.2-1.27,4.71,4.71,0,0,0-1.18,1.77c-.21.66,0,1.09.42,1.24A2.11,2.11,0,0,0,194,5.06Z"/><path class="cls-2" d="M195.77,2.64A7,7,0,0,1,196,1.35,5.87,5.87,0,0,0,194.45,3c-.36.63-.31,1.07,0,1.27A2.67,2.67,0,0,0,195.77,2.64Z"/><path class="cls-2" d="M201.69,27.12a1.5,1.5,0,0,0,1-1.87,4.33,4.33,0,0,0-1.54-1.92c-.32.61-.88,1.14-1.18,1.76C199.51,26,200.35,26.68,201.69,27.12Z"/><path class="cls-2" d="M197.44,22.84c-.47.79.2,1.54,1.37,2a1.54,1.54,0,0,0,1.06-1.69,3.88,3.88,0,0,0-1.18-1.93C198.36,21.78,197.79,22.25,197.44,22.84Z"/><path class="cls-2" d="M196.56,22.5a1.59,1.59,0,0,0,1-1.09.6.6,0,0,0,.06-.19c0-.11.1-.19.09-.31a3.55,3.55,0,0,0-.84-1.93c-.39.52-1,.94-1.34,1.48C195.05,21.21,195.57,22,196.56,22.5Z"/><path class="cls-2" d="M194.87,20a1.65,1.65,0,0,0,1.27-1.46,3.4,3.4,0,0,0-.52-1.91c-.42.49-1,.86-1.39,1.36C193.65,18.66,194,19.41,194.87,20Z"/><path class="cls-2" d="M195,16a3.33,3.33,0,0,0-.21-1.87c-.44.44-1,.78-1.43,1.24-.6.64-.36,1.37.32,2A1.7,1.7,0,0,0,195,16Z"/><path class="cls-2" d="M193,14.73a1.84,1.84,0,0,0,1.38-1.23,3.55,3.55,0,0,0,.09-1.83c-.47.42-1,.72-1.48,1.15a1.27,1.27,0,0,0-.11,1.79Z"/><path class="cls-2" d="M192.93,12.09A1.91,1.91,0,0,0,194.35,11a4,4,0,0,0,.36-1.73h0c-.49.38-1,.65-1.51,1A1.31,1.31,0,0,0,192.93,12.09Z"/><path class="cls-2" d="M193.31,9.48a2.13,2.13,0,0,0,1.47-1,4.41,4.41,0,0,0,.6-1.57V6.78h0c-.5.35-1,.6-1.54,1A1.43,1.43,0,0,0,193.31,9.48Z"/><path class="cls-2" d="M194.2,6.91a2.34,2.34,0,0,0,1.51-1,6.17,6.17,0,0,0,.9-1.63c-.53.33-1.06.55-1.58.89A1.61,1.61,0,0,0,194.2,6.91Z"/><path class="cls-2" d="M198.23,2c-.55.31-1.08.51-1.62.81a1.91,1.91,0,0,0-1.07,1.61,2.69,2.69,0,0,0,1.55-.87A7.84,7.84,0,0,0,198.23,2Z"/><path class="cls-2" d="M206.15,29.89c-13.5-6.3-17.51-16.67-9.93-27.48v.26A3.22,3.22,0,0,0,198,1.34,11.52,11.52,0,0,1,198.76,0a7.76,7.76,0,0,0-2,1.31,1.42,1.42,0,0,0-.57,1.1c-7.74,10.86-3.79,21.29,9.65,27.76C208.3,31.34,208.59,31,206.15,29.89Z"/><path class="cls-2" d="M220.26,26.25a3.23,3.23,0,0,0-2.9,1.51,3.17,3.17,0,0,0,3,.45,6,6,0,0,0,2.74-1.65l.1-.08h0C222.16,26.51,221.25,26.29,220.26,26.25Z"/><path class="cls-2" d="M220.35,25.41a3,3,0,0,0,2.79.1,4.84,4.84,0,0,0,2.23-1.92c-.91.14-1.78,0-2.69.1A2.62,2.62,0,0,0,220.35,25.41Z"/><path class="cls-2" d="M222.63,23a2.7,2.7,0,0,0,2.57-.21,4,4,0,0,0,1.64-2c-.8.23-1.62.23-2.43.39A2.14,2.14,0,0,0,222.63,23Z"/><path class="cls-2" d="M225.67,18.41a1.78,1.78,0,0,0-1.24,2,2.32,2.32,0,0,0,2.28-.49,3.19,3.19,0,0,0,1-1.86,1.42,1.42,0,0,0,.07-.22h0C227.11,18.09,226.37,18.19,225.67,18.41Z"/><path class="cls-2" d="M228.14,14.84h0a16.75,16.75,0,0,1-1.76.85,1.58,1.58,0,0,0-.73,2A1.9,1.9,0,0,0,227.6,17a3,3,0,0,0,.54-2v-.13Z"/><path class="cls-2" d="M226.3,14.92a1.52,1.52,0,0,0,1.6-.91,2.92,2.92,0,0,0,0-2.06,13.45,13.45,0,0,1-1.38,1C225.93,13.41,226,14.16,226.3,14.92Z"/><path class="cls-2" d="M226.22,10.27c-.44.54-.26,1.22.19,1.91a1.19,1.19,0,0,0,1.21-1,2.89,2.89,0,0,0-.22-1.51,4.68,4.68,0,0,0-.18-.48h0A9.74,9.74,0,0,1,226.22,10.27Z"/><path class="cls-2" d="M226,9.48a1,1,0,0,0,.82-1.15v0A3.61,3.61,0,0,0,226,6.42a9.2,9.2,0,0,1-.6,1.22C225.13,8.22,225.43,8.86,226,9.48Z"/><path class="cls-2" d="M225,6.8c.44-.15.63-.58.42-1.24a4.6,4.6,0,0,0-1-1.6s-.09-.12-.14-.17h0a6,6,0,0,1-.2,1.27A2.17,2.17,0,0,0,225,6.8Z"/><path class="cls-2" d="M223.6,4.26c.34-.2.39-.64,0-1.27a5.9,5.9,0,0,0-1.51-1.64,6.18,6.18,0,0,1,.19,1.29A2.67,2.67,0,0,0,223.6,4.26Z"/><path class="cls-2" d="M216.39,27.12c1.34-.44,2.17-1.17,1.76-2-.3-.62-.86-1.15-1.18-1.76a4.33,4.33,0,0,0-1.54,1.92A1.49,1.49,0,0,0,216.39,27.12Z"/><path class="cls-2" d="M219.27,24.88c1.16-.5,1.83-1.25,1.36-2-.35-.59-.91-1.06-1.28-1.62a3.91,3.91,0,0,0-1.17,1.93A1.54,1.54,0,0,0,219.27,24.88Z"/><path class="cls-2" d="M221.16,19h0a.75.75,0,0,0-.07.12,3.49,3.49,0,0,0-.77,1.81c0,.12.08.2.09.31l.06.19a1.63,1.63,0,0,0,1,1.09c1-.54,1.52-1.29,1-2-.37-.54-.95-1-1.34-1.48Z"/><path class="cls-2" d="M223.87,18c-.41-.5-1-.87-1.39-1.36a3.25,3.25,0,0,0-.52,1.91A1.64,1.64,0,0,0,223.22,20C224.05,19.41,224.43,18.66,223.87,18Z"/><path class="cls-2" d="M224.72,15.41c-.44-.46-1-.8-1.44-1.24a3.51,3.51,0,0,0-.21,1.87,1.73,1.73,0,0,0,1.33,1.37C225.07,16.76,225.32,16,224.72,15.41Z"/><path class="cls-2" d="M225,12.82c-.45-.43-1-.73-1.47-1.15a3.66,3.66,0,0,0,.08,1.83A1.84,1.84,0,0,0,225,14.73a1.27,1.27,0,0,0,.13-1.79Z"/><path class="cls-2" d="M223.36,9.2h0a4,4,0,0,0,.36,1.73,2,2,0,0,0,1.43,1.12,1.31,1.31,0,0,0-.27-1.83h0C224.39,9.85,223.87,9.58,223.36,9.2Z"/><path class="cls-2" d="M224.2,7.71c-.5-.36-1-.61-1.54-1h0v.11a4.6,4.6,0,0,0,.61,1.59,2.06,2.06,0,0,0,1.46,1A1.43,1.43,0,0,0,224.2,7.71Z"/><path class="cls-2" d="M223.05,5.22c-.52-.34-1.05-.56-1.58-.89a5.9,5.9,0,0,0,.9,1.63,2.34,2.34,0,0,0,1.51,1A1.63,1.63,0,0,0,223.05,5.22Z"/><path class="cls-2" d="M221.46,2.85c-.53-.3-1.06-.5-1.61-.81A7.21,7.21,0,0,0,221,3.59a2.69,2.69,0,0,0,1.55.87A1.92,1.92,0,0,0,221.46,2.85Z"/><path class="cls-2" d="M221.87,2.41a1.41,1.41,0,0,0-.56-1.1,8,8,0,0,0-2-1.31h0A10.25,10.25,0,0,1,220,1.34a3.24,3.24,0,0,0,1.83,1.33V2.41c7.3,10.4,3.86,20.4-8.45,26.75-2.78,1.44-2.66,1.81.08.37C225.87,23,229.35,12.92,221.87,2.41Z"/><text class="cls-3" transform="translate(201.03 8.22)">2017</text><g class="cls-4"><text class="cls-5" transform="translate(205.73 12.43)">BEST </text><text class="cls-5" transform="translate(201.85 15.51)">CUSTOMER </text><text class="cls-5" transform="translate(203.61 18.6)">SERVICE </text><text class="cls-5" transform="translate(203.89 21.68)">GLOBAL</text></g><text class="cls-1" transform="translate(241.86 35.79)">WORLD FINANCE</text><path class="cls-2" d="M244.87,26.3c-1,0-1.91.26-2.91.23h0l.1.08a6.09,6.09,0,0,0,2.75,1.66,3.17,3.17,0,0,0,3-.46A3.21,3.21,0,0,0,244.87,26.3Z"/><path class="cls-2" d="M244.73,25.49a2.62,2.62,0,0,0-2.33-1.72c-.91-.07-1.79,0-2.7-.11a4.92,4.92,0,0,0,2.23,1.93A3,3,0,0,0,244.73,25.49Z"/><path class="cls-2" d="M242.44,23a2.12,2.12,0,0,0-1.78-1.85c-.81-.16-1.63-.16-2.43-.39a3.94,3.94,0,0,0,1.64,2A2.71,2.71,0,0,0,242.44,23Z"/><path class="cls-2" d="M240.65,20.41a1.8,1.8,0,0,0-1.25-1.94c-.71-.18-1.42-.39-2.11-.64a3.32,3.32,0,0,0,1.07,2.09A2.33,2.33,0,0,0,240.65,20.41Z"/><path class="cls-2" d="M239.42,17.68a1.57,1.57,0,0,0-.74-2,16.75,16.75,0,0,1-1.76-.85,3,3,0,0,0,.54,2.1A1.92,1.92,0,0,0,239.42,17.68Z"/><path class="cls-2" d="M238.76,15a1.51,1.51,0,0,0-.25-2,12.56,12.56,0,0,1-1.39-1,3,3,0,0,0,0,2.07A1.53,1.53,0,0,0,238.76,15Z"/><path class="cls-2" d="M238.66,12.21c.46-.7.63-1.38.19-1.92a9.07,9.07,0,0,1-1-1.14h0a3.41,3.41,0,0,0-.18.48,2.9,2.9,0,0,0-.23,1.51A1.23,1.23,0,0,0,238.66,12.21Z"/><path class="cls-2" d="M239.09,9.5c.55-.63.85-1.26.59-1.85a9.2,9.2,0,0,1-.6-1.22,3.7,3.7,0,0,0-.82,1.9,1,1,0,0,0,.8,1.17Z"/><path class="cls-2" d="M241,5.07a6.85,6.85,0,0,1-.2-1.27,4.73,4.73,0,0,0-1.19,1.77c-.21.66,0,1.09.42,1.24A2.11,2.11,0,0,0,241,5.07Z"/><path class="cls-2" d="M242.77,2.65a7.14,7.14,0,0,1,.18-1.3A6.21,6.21,0,0,0,241.44,3c-.35.64-.3,1.08,0,1.28A2.72,2.72,0,0,0,242.77,2.65Z"/><path class="cls-2" d="M248.7,27.17a1.5,1.5,0,0,0,1-1.87h0a4.38,4.38,0,0,0-1.58-1.88c-.32.61-.88,1.14-1.19,1.77C246.52,26,247.36,26.73,248.7,27.17Z"/><path class="cls-2" d="M244.45,22.88c-.48.8.2,1.55,1.36,2.05a1.54,1.54,0,0,0,1.06-1.73,3.93,3.93,0,0,0-1.17-1.94C245.36,21.82,244.8,22.29,244.45,22.88Z"/><path class="cls-2" d="M243.57,22.54a1.63,1.63,0,0,0,1-1.09v-.19c0-.11.1-.19.09-.31a3.5,3.5,0,0,0-.83-1.94c-.4.53-1,.95-1.35,1.49C242.05,21.25,242.57,22,243.57,22.54Z"/><path class="cls-2" d="M241.87,20a1.65,1.65,0,0,0,1.27-1.46,3.43,3.43,0,0,0-.52-1.92c-.42.49-1,.86-1.4,1.36C240.64,18.69,241,19.41,241.87,20Z"/><path class="cls-2" d="M242,16.05a3.36,3.36,0,0,0-.21-1.88c-.44.45-1,.79-1.44,1.25-.6.64-.35,1.38.32,2A1.7,1.7,0,0,0,242,16.05Z"/><path class="cls-2" d="M240,14.76a1.84,1.84,0,0,0,1.38-1.23,3.49,3.49,0,0,0,.08-1.84c-.46.42-1,.72-1.47,1.15a1.28,1.28,0,0,0-.1,1.81Z"/><path class="cls-2" d="M239.92,12.12A2,2,0,0,0,241.35,11a4,4,0,0,0,.36-1.73h0c-.48.39-1,.66-1.51,1.06A1.32,1.32,0,0,0,239.92,12.12Z"/><path class="cls-2" d="M240.31,9.5a2.13,2.13,0,0,0,1.47-1,4.61,4.61,0,0,0,.6-1.57V6.8h0c-.5.36-1,.6-1.54,1A1.43,1.43,0,0,0,240.31,9.5Z"/><path class="cls-2" d="M241.2,6.92a2.36,2.36,0,0,0,1.51-1,5.65,5.65,0,0,0,.9-1.63c-.53.33-1.06.55-1.58.89A1.61,1.61,0,0,0,241.2,6.92Z"/><path class="cls-2" d="M245.23,2.05c-.55.3-1.08.5-1.62.81a1.9,1.9,0,0,0-1.07,1.6,2.62,2.62,0,0,0,1.55-.86A7.21,7.21,0,0,0,245.23,2.05Z"/><path class="cls-2" d="M253.17,29.94c-13.53-6.31-17.55-16.7-10-27.52v.26A3.31,3.31,0,0,0,245,1.34,11.59,11.59,0,0,1,245.72,0a8.32,8.32,0,0,0-2,1.31,1.42,1.42,0,0,0-.57,1.1c-7.75,10.88-3.8,21.34,9.67,27.82C255.32,31.41,255.61,31.08,253.17,29.94Z"/><path class="cls-2" d="M267.31,26.3a3.24,3.24,0,0,0-2.91,1.51,3.2,3.2,0,0,0,3,.46,6.12,6.12,0,0,0,2.74-1.66l.1-.08h0C269.21,26.56,268.29,26.34,267.31,26.3Z"/><path class="cls-2" d="M267.39,25.49a3,3,0,0,0,2.8.1,4.89,4.89,0,0,0,2.24-1.93c-.91.14-1.79,0-2.7.11A2.62,2.62,0,0,0,267.39,25.49Z"/><path class="cls-2" d="M269.68,23a2.7,2.7,0,0,0,2.57-.21,4,4,0,0,0,1.65-2c-.8.23-1.62.23-2.43.39A2.14,2.14,0,0,0,269.68,23Z"/><path class="cls-2" d="M272.72,18.46a1.81,1.81,0,0,0-1.24,1.95,2.32,2.32,0,0,0,2.28-.49,3.22,3.22,0,0,0,1-1.86,2,2,0,0,0,.07-.23h0A19.64,19.64,0,0,1,272.72,18.46Z"/><path class="cls-2" d="M275.2,14.86h0a16.75,16.75,0,0,1-1.76.85,1.58,1.58,0,0,0-.73,2,1.9,1.9,0,0,0,2-.72,3,3,0,0,0,.54-2,.09.09,0,0,0,0-.07Z"/><path class="cls-2" d="M273.36,15A1.55,1.55,0,0,0,275,14,3,3,0,0,0,275,12a12.56,12.56,0,0,1-1.39,1A1.53,1.53,0,0,0,273.36,15Z"/><path class="cls-2" d="M273.28,10.29c-.45.54-.27,1.22.19,1.92a1.22,1.22,0,0,0,1.21-1.06,2.89,2.89,0,0,0-.22-1.51,4.68,4.68,0,0,0-.18-.48h0A9.74,9.74,0,0,1,273.28,10.29Z"/><path class="cls-2" d="M273,9.5a1,1,0,0,0,.82-1.15v0a3.6,3.6,0,0,0-.81-1.9,7.31,7.31,0,0,1-.61,1.22C272.18,8.24,272.49,8.87,273,9.5Z"/><path class="cls-2" d="M272.08,6.81c.44-.15.63-.58.43-1.24a4.6,4.6,0,0,0-1-1.6c-.05-.06-.09-.12-.14-.17h0a7.81,7.81,0,0,1-.2,1.27A2.12,2.12,0,0,0,272.08,6.81Z"/><path class="cls-2" d="M270.65,4.27c.34-.2.39-.64,0-1.28a5.9,5.9,0,0,0-1.51-1.64,6.37,6.37,0,0,1,.19,1.3A2.67,2.67,0,0,0,270.65,4.27Z"/><path class="cls-2" d="M263.43,27.17c1.34-.44,2.17-1.17,1.76-2-.3-.63-.86-1.16-1.18-1.77a4.41,4.41,0,0,0-1.55,1.92A1.51,1.51,0,0,0,263.43,27.17Z"/><path class="cls-2" d="M266.32,24.93c1.16-.5,1.83-1.25,1.36-2.05-.35-.59-.92-1.06-1.28-1.62a3.84,3.84,0,0,0-1.18,1.94A1.54,1.54,0,0,0,266.32,24.93Z"/><path class="cls-2" d="M268.21,19h0a.75.75,0,0,0-.07.12,3.38,3.38,0,0,0-.77,1.81c0,.12.07.2.09.31l.06.19a1.59,1.59,0,0,0,1,1.09c1-.54,1.52-1.29,1-2-.38-.54-1-1-1.35-1.49Z"/><path class="cls-2" d="M270.92,18c-.41-.5-1-.87-1.39-1.36a3.26,3.26,0,0,0-.52,1.92A1.64,1.64,0,0,0,270.27,20C271.11,19.41,271.48,18.69,270.92,18Z"/><path class="cls-2" d="M271.77,15.41c-.43-.46-1-.8-1.44-1.25a3.56,3.56,0,0,0-.21,1.88,1.71,1.71,0,0,0,1.33,1.37C272.13,16.8,272.37,16.06,271.77,15.41Z"/><path class="cls-2" d="M272.1,12.84c-.46-.43-1-.73-1.48-1.15a3.59,3.59,0,0,0,.09,1.84,1.82,1.82,0,0,0,1.38,1.23,1.28,1.28,0,0,0,.12-1.81A1.14,1.14,0,0,0,272.1,12.84Z"/><path class="cls-2" d="M270.41,9.21h0a4,4,0,0,0,.37,1.73,2,2,0,0,0,1.42,1.13,1.33,1.33,0,0,0-.28-1.85h0C271.44,9.87,270.87,9.6,270.41,9.21Z"/><path class="cls-2" d="M271.26,7.73c-.5-.37-1-.61-1.55-1h0v.11a4.58,4.58,0,0,0,.61,1.6,2.1,2.1,0,0,0,1.47,1A1.42,1.42,0,0,0,271.26,7.73Z"/><path class="cls-2" d="M270.1,5.23c-.52-.34-1-.56-1.58-.89a5.65,5.65,0,0,0,.9,1.63,2.36,2.36,0,0,0,1.51,1A1.63,1.63,0,0,0,270.1,5.23Z"/><path class="cls-2" d="M268.51,2.86c-.54-.31-1.07-.51-1.62-.81A7.89,7.89,0,0,0,268,3.6a2.62,2.62,0,0,0,1.55.86A1.93,1.93,0,0,0,268.51,2.86Z"/><path class="cls-2" d="M268.87,2.41a1.4,1.4,0,0,0-.57-1.1,7.76,7.76,0,0,0-2-1.31h0A13.33,13.33,0,0,1,267,1.34a3.28,3.28,0,0,0,1.84,1.34V2.42c7.32,10.42,3.87,20.43-8.47,26.8-2.78,1.44-2.66,1.81.08.37C273,23.07,276.41,12.94,268.87,2.41Z"/><text class="cls-6" transform="translate(248.05 8.23)">2017</text><g class="cls-4"><text class="cls-7" transform="translate(250.9 12.46)">BEST FX </text><text class="cls-7" transform="translate(250.64 15.55)"><tspan xml:space="preserve">BROKER  </tspan></text><text class="cls-7" transform="translate(253.11 18.64)">ASIA</text></g><text class="cls-1" transform="translate(106.33 35.72)">FXEMPIRE</text><text class="cls-1" transform="translate(10.63 35.72)">FXDAILYINFO</text><path class="cls-2" d="M103.76,26.25c-1,0-1.9.26-2.9.23h0l.1.08a6,6,0,0,0,2.75,1.65,3.17,3.17,0,0,0,3-.45A3.22,3.22,0,0,0,103.76,26.25Z"/><path class="cls-2" d="M103.68,25.41a2.62,2.62,0,0,0-2.33-1.72c-.91-.06-1.79,0-2.7-.1a5,5,0,0,0,2.22,1.95A3,3,0,0,0,103.68,25.41Z"/><path class="cls-2" d="M101.39,23a2.11,2.11,0,0,0-1.78-1.85C98.8,21,98,21,97.19,20.72a3.94,3.94,0,0,0,1.64,2A2.69,2.69,0,0,0,101.39,23Z"/><path class="cls-2" d="M99.6,20.41a1.79,1.79,0,0,0-1.24-2c-.71-.24-1.44-.34-2.11-.64a3.29,3.29,0,0,0,1.07,2.08A2.31,2.31,0,0,0,99.6,20.41Z"/><path class="cls-2" d="M98.37,17.65a1.58,1.58,0,0,0-.73-2,16.68,16.68,0,0,1-1.77-.82,3,3,0,0,0,.54,2.1A1.9,1.9,0,0,0,98.37,17.65Z"/><path class="cls-2" d="M97.72,14.92a1.57,1.57,0,0,0-.25-2,13.58,13.58,0,0,1-1.39-1,3,3,0,0,0,0,2.06A1.52,1.52,0,0,0,97.72,14.92Z"/><path class="cls-2" d="M97.62,12.18c.45-.69.63-1.37.18-1.91a10.77,10.77,0,0,1-1-1.13h0a3.94,3.94,0,0,0-.18.48,2.9,2.9,0,0,0-.23,1.51A1.21,1.21,0,0,0,97.62,12.18Z"/><path class="cls-2" d="M98,9.48c.55-.62.86-1.26.6-1.84A6.58,6.58,0,0,1,98,6.42a3.79,3.79,0,0,0-.82,1.89A1,1,0,0,0,98,9.48Z"/><path class="cls-2" d="M100,5.06a7.81,7.81,0,0,1-.2-1.27,4.71,4.71,0,0,0-1.18,1.77c-.21.66,0,1.09.42,1.24A2.11,2.11,0,0,0,100,5.06Z"/><path class="cls-2" d="M101.72,2.64a7,7,0,0,1,.15-1.29A6.21,6.21,0,0,0,100.36,3c-.35.63-.3,1.07,0,1.27A2.7,2.7,0,0,0,101.72,2.64Z"/><path class="cls-2" d="M107.64,27.12a1.5,1.5,0,0,0,1-1.87,4.33,4.33,0,0,0-1.54-1.92c-.32.61-.88,1.14-1.18,1.76C105.46,26,106.3,26.68,107.64,27.12Z"/><path class="cls-2" d="M103.39,22.84c-.47.79.2,1.54,1.37,2a1.55,1.55,0,0,0,1.11-1.69,3.88,3.88,0,0,0-1.18-1.93C104.31,21.78,103.74,22.25,103.39,22.84Z"/><path class="cls-2" d="M102.51,22.5a1.59,1.59,0,0,0,1-1.09.6.6,0,0,0,.06-.19c0-.11.1-.19.09-.31a3.52,3.52,0,0,0-.79-1.93c-.39.52-1,.94-1.34,1.48C101,21.21,101.52,22,102.51,22.5Z"/><path class="cls-2" d="M100.8,20a1.65,1.65,0,0,0,1.27-1.46,3.4,3.4,0,0,0-.52-1.91c-.42.49-1,.86-1.39,1.36C99.6,18.66,100,19.41,100.8,20Z"/><path class="cls-2" d="M101,16a3.33,3.33,0,0,0-.21-1.87c-.44.44-1,.78-1.43,1.24-.6.64-.36,1.37.32,2A1.7,1.7,0,0,0,101,16Z"/><path class="cls-2" d="M99,14.73a1.84,1.84,0,0,0,1.38-1.23,3.55,3.55,0,0,0,.09-1.83c-.47.42-1,.72-1.48,1.15a1.27,1.27,0,0,0-.11,1.79Z"/><path class="cls-2" d="M98.87,12.09A1.91,1.91,0,0,0,100.29,11a4,4,0,0,0,.36-1.73h0c-.49.38-1,.65-1.51,1A1.31,1.31,0,0,0,98.87,12.09Z"/><path class="cls-2" d="M99.26,9.48a2.13,2.13,0,0,0,1.47-1,4.41,4.41,0,0,0,.6-1.57V6.78h0c-.5.35-1,.6-1.54,1A1.43,1.43,0,0,0,99.26,9.48Z"/><path class="cls-2" d="M100.15,6.91a2.34,2.34,0,0,0,1.51-1,6.17,6.17,0,0,0,.9-1.63c-.53.33-1.06.55-1.58.89A1.61,1.61,0,0,0,100.15,6.91Z"/><path class="cls-2" d="M104.18,2c-.55.31-1.08.51-1.62.81a1.91,1.91,0,0,0-1.07,1.61A2.69,2.69,0,0,0,103,3.59,7.84,7.84,0,0,0,104.18,2Z"/><path class="cls-2" d="M112.1,29.89c-13.5-6.3-17.51-16.67-9.93-27.48v.26A3.22,3.22,0,0,0,104,1.34,11.52,11.52,0,0,1,104.71,0a7.76,7.76,0,0,0-2,1.31,1.43,1.43,0,0,0-.54,1.1c-7.74,10.86-3.8,21.29,9.7,27.76C114.25,31.34,114.54,31,112.1,29.89Z"/><path class="cls-2" d="M126.21,26.25a3.23,3.23,0,0,0-2.9,1.51,3.17,3.17,0,0,0,3,.45,6,6,0,0,0,2.74-1.65l.1-.08h0C128.11,26.51,127.2,26.29,126.21,26.25Z"/><path class="cls-2" d="M126.3,25.41a3,3,0,0,0,2.79.1,5,5,0,0,0,2.23-1.92c-.91.14-1.78,0-2.69.1A2.62,2.62,0,0,0,126.3,25.41Z"/><path class="cls-2" d="M128.58,23a2.7,2.7,0,0,0,2.57-.21,4,4,0,0,0,1.64-2c-.8.23-1.62.23-2.43.39A2.14,2.14,0,0,0,128.58,23Z"/><path class="cls-2" d="M131.62,18.41a1.78,1.78,0,0,0-1.24,2,2.32,2.32,0,0,0,2.28-.49,3.19,3.19,0,0,0,1-1.86,1.42,1.42,0,0,0,.07-.22h0C133.06,18.09,132.32,18.19,131.62,18.41Z"/><path class="cls-2" d="M134.09,14.84h0a16.75,16.75,0,0,1-1.76.85,1.58,1.58,0,0,0-.73,2,1.91,1.91,0,0,0,2-.72,3,3,0,0,0,.54-2v-.06Z"/><path class="cls-2" d="M132.25,14.92a1.52,1.52,0,0,0,1.6-.91,2.92,2.92,0,0,0,0-2.06,15.15,15.15,0,0,1-1.38,1C131.87,13.41,131.92,14.16,132.25,14.92Z"/><path class="cls-2" d="M132.17,10.27c-.44.54-.26,1.22.19,1.91a1.19,1.19,0,0,0,1.21-1,2.89,2.89,0,0,0-.22-1.51,4.68,4.68,0,0,0-.18-.48h0A10.77,10.77,0,0,1,132.17,10.27Z"/><path class="cls-2" d="M131.93,9.48a1,1,0,0,0,.82-1.15v0a3.61,3.61,0,0,0-.81-1.89,9.2,9.2,0,0,1-.6,1.22C131.08,8.22,131.38,8.86,131.93,9.48Z"/><path class="cls-2" d="M131,6.8c.44-.15.63-.58.42-1.24a4.6,4.6,0,0,0-1-1.6s-.09-.12-.14-.17h0a6,6,0,0,1-.2,1.27A2.17,2.17,0,0,0,131,6.8Z"/><path class="cls-2" d="M129.55,4.26c.34-.2.39-.64,0-1.27A5.9,5.9,0,0,0,128,1.35a6.18,6.18,0,0,1,.19,1.29A2.67,2.67,0,0,0,129.55,4.26Z"/><path class="cls-2" d="M122.34,27.12c1.34-.44,2.17-1.17,1.76-2-.3-.62-.86-1.15-1.18-1.76a4.33,4.33,0,0,0-1.54,1.92A1.49,1.49,0,0,0,122.34,27.12Z"/><path class="cls-2" d="M125.22,24.88c1.16-.5,1.83-1.25,1.36-2-.35-.59-.92-1.06-1.28-1.62a3.91,3.91,0,0,0-1.17,1.93A1.54,1.54,0,0,0,125.22,24.88Z"/><path class="cls-2" d="M127.11,19h0a.75.75,0,0,0-.07.12,3.49,3.49,0,0,0-.77,1.81c0,.12.08.2.09.31l.06.19a1.63,1.63,0,0,0,1,1.09c1-.54,1.52-1.29,1-2-.37-.54-1-1-1.34-1.48Z"/><path class="cls-2" d="M129.87,18c-.41-.5-1-.87-1.39-1.36a3.25,3.25,0,0,0-.52,1.91A1.64,1.64,0,0,0,129.22,20C130,19.41,130.38,18.66,129.87,18Z"/><path class="cls-2" d="M130.67,15.41c-.44-.46-1-.8-1.44-1.24A3.51,3.51,0,0,0,129,16a1.73,1.73,0,0,0,1.33,1.37C131,16.76,131.26,16,130.67,15.41Z"/><path class="cls-2" d="M131,12.82c-.45-.43-1-.73-1.47-1.15a3.66,3.66,0,0,0,.08,1.83A1.84,1.84,0,0,0,131,14.73a1.27,1.27,0,0,0,.13-1.79Z"/><path class="cls-2" d="M129.31,9.2h0a4,4,0,0,0,.36,1.73,2,2,0,0,0,1.43,1.12,1.31,1.31,0,0,0-.27-1.83h0C130.34,9.85,129.79,9.58,129.31,9.2Z"/><path class="cls-2" d="M130.15,7.71c-.5-.36-1-.61-1.54-1h0v.11a4.58,4.58,0,0,0,.6,1.59,2.13,2.13,0,0,0,1.47,1A1.43,1.43,0,0,0,130.15,7.71Z"/><path class="cls-2" d="M129,5.22c-.52-.34-1-.56-1.58-.89a5.9,5.9,0,0,0,.9,1.63,2.33,2.33,0,0,0,1.5,1A1.6,1.6,0,0,0,129,5.22Z"/><path class="cls-2" d="M127.41,2.85c-.54-.3-1.06-.5-1.61-.81a7.21,7.21,0,0,0,1.14,1.55,2.69,2.69,0,0,0,1.55.87A1.92,1.92,0,0,0,127.41,2.85Z"/><path class="cls-2" d="M127.8,2.41a1.41,1.41,0,0,0-.56-1.1,8,8,0,0,0-2-1.31h0A10.25,10.25,0,0,1,126,1.34a3.22,3.22,0,0,0,1.82,1.33V2.41c7.3,10.4,3.86,20.4-8.45,26.75-2.78,1.44-2.66,1.81.08.37C131.87,23,135.3,12.92,127.8,2.41Z"/><text class="cls-3" transform="translate(106.99 8.22)">2018</text><g class="cls-4"><text class="cls-8" transform="translate(111.09 13.14)">MOST</text><text class="cls-8" transform="translate(106.87 16.42)">INNOVATIVE</text><text class="cls-8" transform="translate(109.35 19.7)">BROKER</text></g><text class="cls-1" transform="translate(147.81 35.72)">WORLD FINANCE</text><path class="cls-2" d="M150.79,26.25c-1,0-1.9.26-2.9.23h0l.1.08a6,6,0,0,0,2.74,1.65,3.17,3.17,0,0,0,3-.45A3.25,3.25,0,0,0,150.79,26.25Z"/><path class="cls-2" d="M150.7,25.41a2.62,2.62,0,0,0-2.33-1.72c-.91-.06-1.78,0-2.69-.1a4.87,4.87,0,0,0,2.19,1.95A3,3,0,0,0,150.7,25.41Z"/><path class="cls-2" d="M148.42,23a2.12,2.12,0,0,0-1.78-1.85c-.81-.16-1.63-.16-2.43-.39a4,4,0,0,0,1.64,2A2.71,2.71,0,0,0,148.42,23Z"/><path class="cls-2" d="M146.63,20.41a1.79,1.79,0,0,0-1.25-2c-.7-.24-1.44-.34-2.11-.64a3.29,3.29,0,0,0,1.07,2.08A2.32,2.32,0,0,0,146.63,20.41Z"/><path class="cls-2" d="M145.4,17.65a1.58,1.58,0,0,0-.73-2,16.75,16.75,0,0,1-1.76-.85,3,3,0,0,0,.54,2.1A1.92,1.92,0,0,0,145.4,17.65Z"/><path class="cls-2" d="M144.75,14.92a1.56,1.56,0,0,0-.26-2,15.15,15.15,0,0,1-1.38-1,2.92,2.92,0,0,0,0,2.06A1.53,1.53,0,0,0,144.75,14.92Z"/><path class="cls-2" d="M144.64,12.18c.46-.69.63-1.37.19-1.91a10.77,10.77,0,0,1-1-1.13h0a4.68,4.68,0,0,0-.18.48,2.89,2.89,0,0,0-.22,1.51A1.19,1.19,0,0,0,144.64,12.18Z"/><path class="cls-2" d="M145.07,9.48c.55-.62.85-1.26.59-1.84a9.2,9.2,0,0,1-.6-1.22,3.61,3.61,0,0,0-.81,1.89,1,1,0,0,0,.8,1.17Z"/><path class="cls-2" d="M147,5.06a6,6,0,0,1-.2-1.27,4.85,4.85,0,0,0-1.19,1.77c-.21.66,0,1.09.42,1.24A2.15,2.15,0,0,0,147,5.06Z"/><path class="cls-2" d="M148.74,2.64a6.18,6.18,0,0,1,.19-1.29A5.9,5.9,0,0,0,147.42,3c-.35.63-.31,1.07,0,1.27A2.67,2.67,0,0,0,148.74,2.64Z"/><path class="cls-2" d="M154.66,27.12a1.47,1.47,0,0,0,1-1.83v0a4.24,4.24,0,0,0-1.53-1.92c-.33.61-.89,1.14-1.19,1.76C152.49,26,153.32,26.68,154.66,27.12Z"/><path class="cls-2" d="M150.42,22.84c-.47.79.2,1.54,1.36,2a1.54,1.54,0,0,0,1.09-1.69,3.91,3.91,0,0,0-1.17-1.93C151.33,21.78,150.77,22.25,150.42,22.84Z"/><path class="cls-2" d="M149.54,22.5a1.63,1.63,0,0,0,1-1.09l.06-.19c0-.11.09-.19.09-.31a3.55,3.55,0,0,0-.84-1.93c-.39.52-1,.94-1.34,1.48C148,21.21,148.55,22,149.54,22.5Z"/><path class="cls-2" d="M147.87,20a1.64,1.64,0,0,0,1.26-1.46,3.25,3.25,0,0,0-.52-1.91c-.42.49-1,.86-1.39,1.36C146.62,18.66,147,19.41,147.87,20Z"/><path class="cls-2" d="M148,16a3.51,3.51,0,0,0-.21-1.87c-.44.44-1,.78-1.44,1.24-.59.64-.35,1.37.32,2A1.73,1.73,0,0,0,148,16Z"/><path class="cls-2" d="M146,14.73a1.84,1.84,0,0,0,1.38-1.23,3.55,3.55,0,0,0,.08-1.83c-.46.42-1,.72-1.47,1.15a1.27,1.27,0,0,0-.11,1.79Z"/><path class="cls-2" d="M145.87,12.09A2,2,0,0,0,147.3,11a4,4,0,0,0,.36-1.73h0c-.48.38-1,.65-1.51,1A1.31,1.31,0,0,0,145.87,12.09Z"/><path class="cls-2" d="M146.29,9.48a2.13,2.13,0,0,0,1.47-1,4.59,4.59,0,0,0,.59-1.57V6.78h0c-.51.35-1,.6-1.54,1A1.41,1.41,0,0,0,146.29,9.48Z"/><path class="cls-2" d="M147.18,6.91a2.36,2.36,0,0,0,1.5-1,5.9,5.9,0,0,0,.9-1.63c-.53.33-1.06.55-1.58.89A1.6,1.6,0,0,0,147.18,6.91Z"/><path class="cls-2" d="M151.2,2c-.54.31-1.07.51-1.61.81a1.92,1.92,0,0,0-1.08,1.61,2.69,2.69,0,0,0,1.55-.87A7.21,7.21,0,0,0,151.2,2Z"/><path class="cls-2" d="M159.13,29.89c-13.51-6.3-17.52-16.67-9.93-27.48v.26A3.22,3.22,0,0,0,151,1.34,10.25,10.25,0,0,1,151.75,0a7.76,7.76,0,0,0-2,1.31,1.41,1.41,0,0,0-.56,1.1c-7.74,10.86-3.8,21.29,9.64,27.76C161.27,31.34,161.56,31,159.13,29.89Z"/><path class="cls-2" d="M173.24,26.25a3.24,3.24,0,0,0-2.91,1.51,3.17,3.17,0,0,0,3,.45,6,6,0,0,0,2.75-1.65l.1-.08h0C175.14,26.51,174.22,26.29,173.24,26.25Z"/><path class="cls-2" d="M173.32,25.41a3,3,0,0,0,2.8.1,5,5,0,0,0,2.23-1.92c-.91.14-1.79,0-2.7.1A2.62,2.62,0,0,0,173.32,25.41Z"/><path class="cls-2" d="M175.61,23a2.68,2.68,0,0,0,2.56-.21,3.94,3.94,0,0,0,1.64-2c-.79.23-1.61.23-2.42.39A2.11,2.11,0,0,0,175.61,23Z"/><path class="cls-2" d="M178.64,18.41a1.79,1.79,0,0,0-1.24,2,2.29,2.29,0,0,0,2.28-.49,3.28,3.28,0,0,0,1-1.86c0-.07,0-.14.06-.22h0C180.08,18.09,179.35,18.19,178.64,18.41Z"/><path class="cls-2" d="M181.12,14.84h0a16.75,16.75,0,0,1-1.76.85,1.58,1.58,0,0,0-.73,2,1.91,1.91,0,0,0,2-.72,3,3,0,0,0,.53-2v-.06Z"/><path class="cls-2" d="M179.28,14.92a1.53,1.53,0,0,0,1.59-.91,3,3,0,0,0,0-2.06,13.58,13.58,0,0,1-1.39,1C178.87,13.41,179,14.16,179.28,14.92Z"/><path class="cls-2" d="M179.2,10.27c-.45.54-.27,1.22.18,1.91a1.21,1.21,0,0,0,1.22-1,2.9,2.9,0,0,0-.23-1.51,3.94,3.94,0,0,0-.18-.48h0A9.65,9.65,0,0,1,179.2,10.27Z"/><path class="cls-2" d="M179,9.48a1,1,0,0,0,.82-1.15v0A3.79,3.79,0,0,0,179,6.42a6.58,6.58,0,0,1-.6,1.22C178.1,8.22,178.41,8.86,179,9.48Z"/><path class="cls-2" d="M178,6.8c.44-.15.63-.58.42-1.24a4.6,4.6,0,0,0-1-1.6s-.09-.12-.14-.17h0a7.81,7.81,0,0,1-.2,1.27A2.11,2.11,0,0,0,178,6.8Z"/><path class="cls-2" d="M176.57,4.26c.34-.2.39-.64,0-1.27a6.21,6.21,0,0,0-1.51-1.64,7,7,0,0,1,.18,1.29A2.72,2.72,0,0,0,176.57,4.26Z"/><path class="cls-2" d="M169.36,27.12c1.34-.44,2.18-1.17,1.76-2-.3-.62-.86-1.15-1.18-1.76a4.33,4.33,0,0,0-1.54,1.92A1.51,1.51,0,0,0,169.36,27.12Z"/><path class="cls-2" d="M172.25,24.88c1.16-.5,1.83-1.25,1.36-2-.35-.59-.92-1.06-1.28-1.62a3.88,3.88,0,0,0-1.18,1.93A1.54,1.54,0,0,0,172.25,24.88Z"/><path class="cls-2" d="M174.14,19h0l-.08.12a3.56,3.56,0,0,0-.76,1.81c0,.12.07.2.09.31a.6.6,0,0,0,.06.19,1.59,1.59,0,0,0,1,1.09c1-.54,1.51-1.29,1-2-.38-.54-1-1-1.34-1.48Z"/><path class="cls-2" d="M176.87,18c-.4-.5-1-.87-1.39-1.36a3.4,3.4,0,0,0-.52,1.91A1.65,1.65,0,0,0,176.23,20C177,19.41,177.4,18.66,176.87,18Z"/><path class="cls-2" d="M177.69,15.41c-.43-.46-1-.8-1.43-1.24a3.33,3.33,0,0,0-.21,1.87,1.7,1.7,0,0,0,1.32,1.37C178.05,16.76,178.29,16,177.69,15.41Z"/><path class="cls-2" d="M178,12.82c-.46-.43-1-.73-1.48-1.15a3.55,3.55,0,0,0,.09,1.83A1.84,1.84,0,0,0,178,14.73a1.27,1.27,0,0,0,.13-1.79Z"/><path class="cls-2" d="M176.33,9.2h0a4,4,0,0,0,.36,1.73,1.91,1.91,0,0,0,1.42,1.12,1.31,1.31,0,0,0-.27-1.83h0C177.36,9.85,176.87,9.58,176.33,9.2Z"/><path class="cls-2" d="M177.18,7.71c-.5-.36-1-.61-1.54-1h0v.11a4.58,4.58,0,0,0,.6,1.59,2.13,2.13,0,0,0,1.47,1A1.43,1.43,0,0,0,177.18,7.71Z"/><path class="cls-2" d="M176,5.22c-.52-.34-1.05-.56-1.58-.89a6.17,6.17,0,0,0,.9,1.63,2.34,2.34,0,0,0,1.51,1A1.61,1.61,0,0,0,176,5.22Z"/><path class="cls-2" d="M174.44,2.85c-.54-.3-1.07-.5-1.62-.81A7.84,7.84,0,0,0,174,3.59a2.69,2.69,0,0,0,1.55.87A1.91,1.91,0,0,0,174.44,2.85Z"/><path class="cls-2" d="M174.87,2.41a1.42,1.42,0,0,0-.57-1.1,7.76,7.76,0,0,0-2-1.31h0A13.33,13.33,0,0,1,173,1.34a3.22,3.22,0,0,0,1.84,1.33c0-.07,0-.17,0-.26,7.3,10.4,3.86,20.4-8.45,26.75-2.78,1.44-2.67,1.81.07.37C178.87,23,182.32,12.92,174.87,2.41Z"/><text class="cls-3" transform="translate(154.01 8.22)">2018</text><g class="cls-4"><text class="cls-8" transform="translate(158.57 13.14)">BEST</text><text class="cls-8" transform="translate(155.93 16.42)">TRADING</text><text class="cls-8" transform="translate(153.46 19.7)">CONDITIONS</text></g><text class="cls-1" transform="translate(45.7 35.51)">WORLD FINANCE AWARDS</text><path class="cls-2" d="M56.41,26.18c-1,0-1.89.25-2.89.23h0l.1.08a6.15,6.15,0,0,0,2.73,1.65,3.2,3.2,0,0,0,3-.46A3.18,3.18,0,0,0,56.41,26.18Z"/><path class="cls-2" d="M56.33,25.41A2.6,2.6,0,0,0,54,23.71c-.91-.07-1.78,0-2.68-.11a4.8,4.8,0,0,0,2.22,1.91A3,3,0,0,0,56.33,25.41Z"/><path class="cls-2" d="M54.05,22.91a2.12,2.12,0,0,0-1.77-1.85c-.81-.16-1.62-.16-2.41-.39a3.78,3.78,0,0,0,1.63,2A2.72,2.72,0,0,0,54.05,22.91Z"/><path class="cls-2" d="M52.27,20.32A1.79,1.79,0,0,0,51,18.41c-.7-.24-1.43-.33-2.1-.63A3.27,3.27,0,0,0,50,19.85,2.32,2.32,0,0,0,52.27,20.32Z"/><path class="cls-2" d="M51.05,17.62a1.59,1.59,0,0,0-.73-2,18.74,18.74,0,0,1-1.75-.84,3,3,0,0,0,.53,2.08A1.94,1.94,0,0,0,51.05,17.62Z"/><path class="cls-2" d="M50.4,14.9a1.49,1.49,0,0,0-.26-2,11.16,11.16,0,0,1-1.37-1,2.87,2.87,0,0,0,0,2A1.52,1.52,0,0,0,50.4,14.9Z"/><path class="cls-2" d="M50.29,12.18c.46-.69.63-1.37.19-1.91a9.74,9.74,0,0,1-1-1.13h0a3.41,3.41,0,0,0-.18.48,2.83,2.83,0,0,0-.23,1.49A1.23,1.23,0,0,0,50.29,12.18Z"/><path class="cls-2" d="M50.72,9.48c.54-.61.85-1.25.59-1.83a6.81,6.81,0,0,1-.6-1.21,3.74,3.74,0,0,0-.84,1.88,1,1,0,0,0,.82,1.15Z"/><path class="cls-2" d="M52.63,5.09a6,6,0,0,1-.2-1.27,4.52,4.52,0,0,0-1.18,1.77c-.21.65,0,1.08.42,1.23A2.14,2.14,0,0,0,52.63,5.09Z"/><path class="cls-2" d="M54.37,2.68a6.83,6.83,0,0,1,.19-1.27A6.3,6.3,0,0,0,53.06,3c-.35.63-.31,1.07,0,1.27A2.64,2.64,0,0,0,54.37,2.68Z"/><path class="cls-2" d="M60.27,27.05a1.47,1.47,0,0,0,1-1.83v0a4.41,4.41,0,0,0-1.53-1.91c-.32.61-.87,1.13-1.18,1.76C58.1,25.88,58.93,26.61,60.27,27.05Z"/><path class="cls-2" d="M56,22.78c-.47.8.2,1.54,1.36,2a1.53,1.53,0,0,0,1.08-1.72,3.73,3.73,0,0,0-1.17-1.93C57,21.73,56.39,22.2,56,22.78Z"/><path class="cls-2" d="M55.17,22.41a1.57,1.57,0,0,0,1-1.08.6.6,0,0,0,.06-.19c0-.1.09-.18.09-.3a3.65,3.65,0,0,0-.83-1.93c-.4.52-1,.94-1.34,1.48C53.66,21.16,54.18,21.9,55.17,22.41Z"/><path class="cls-2" d="M53.46,19.94a1.64,1.64,0,0,0,1.26-1.45,3.31,3.31,0,0,0-.51-1.91c-.42.49-1,.86-1.39,1.36C52.26,18.62,52.64,19.41,53.46,19.94Z"/><path class="cls-2" d="M53.61,16a3.41,3.41,0,0,0-.2-1.87c-.44.45-1,.78-1.43,1.24-.6.64-.36,1.37.31,2A1.7,1.7,0,0,0,53.61,16Z"/><path class="cls-2" d="M51.66,14.71A1.78,1.78,0,0,0,53,13.49a3.52,3.52,0,0,0,.09-1.82c-.46.41-1,.71-1.47,1.14a1.27,1.27,0,0,0-.1,1.79Z"/><path class="cls-2" d="M51.55,12.09A2,2,0,0,0,53,11a4.08,4.08,0,0,0,.35-1.72h0c-.48.39-1,.65-1.5,1.05A1.32,1.32,0,0,0,51.55,12.09Z"/><path class="cls-2" d="M51.93,9.49a2.09,2.09,0,0,0,1.46-1A4.64,4.64,0,0,0,54,6.93V6.8h0c-.5.35-1,.59-1.53,1A1.42,1.42,0,0,0,51.93,9.49Z"/><path class="cls-2" d="M52.81,6.92A2.28,2.28,0,0,0,54.31,6a5.6,5.6,0,0,0,.9-1.62c-.53.33-1.06.55-1.57.88A1.61,1.61,0,0,0,52.81,6.92Z"/><path class="cls-2" d="M56.87,2.08c-.54.31-1.07.5-1.61.81a1.87,1.87,0,0,0-1.06,1.6,2.66,2.66,0,0,0,1.54-.87A7.45,7.45,0,0,0,56.87,2.08Z"/><path class="cls-2" d="M64.71,29.8C51.27,23.53,47.27,13.21,54.87,2.41v.26a3.23,3.23,0,0,0,1.77-1.26A9.53,9.53,0,0,1,57.37.08a8,8,0,0,0-2,1.3,1.45,1.45,0,0,0-.5,1C47.17,13.22,51.1,23.61,64.48,30,66.87,31.25,67.13,30.93,64.71,29.8Z"/><path class="cls-2" d="M78.76,26.18a3.18,3.18,0,0,0-2.89,1.5,3.19,3.19,0,0,0,2.94.46,6.19,6.19,0,0,0,2.74-1.65.1.1,0,0,0,.09-.08h0C80.65,26.41,79.74,26.22,78.76,26.18Z"/><path class="cls-2" d="M78.87,25.41a3,3,0,0,0,2.78.1,4.78,4.78,0,0,0,2.22-2c-.9.14-1.77,0-2.68.11A2.59,2.59,0,0,0,78.87,25.41Z"/><path class="cls-2" d="M81.12,22.91a2.69,2.69,0,0,0,2.55-.22,3.87,3.87,0,0,0,1.63-2c-.79.23-1.6.23-2.41.39A2.11,2.11,0,0,0,81.12,22.91Z"/><path class="cls-2" d="M84.14,18.41a1.8,1.8,0,0,0-1.27,1.91,2.3,2.3,0,0,0,2.27-.49,3.26,3.26,0,0,0,1-1.85c0-.08.06-.15.07-.22h0C85.57,18.06,84.87,18.15,84.14,18.41Z"/><path class="cls-2" d="M86.6,14.82h0a18.74,18.74,0,0,1-1.75.84,1.59,1.59,0,0,0-.73,2,1.93,1.93,0,0,0,2-.72,3,3,0,0,0,.53-2v-.06Z"/><path class="cls-2" d="M84.77,14.9A1.53,1.53,0,0,0,86.36,14a2.93,2.93,0,0,0,0-2A13.45,13.45,0,0,1,85,13,1.5,1.5,0,0,0,84.77,14.9Z"/><path class="cls-2" d="M84.69,10.27c-.44.54-.26,1.22.19,1.91a1.22,1.22,0,0,0,1.21-1.06,3,3,0,0,0-.22-1.49,3.41,3.41,0,0,0-.18-.48h0A9.64,9.64,0,0,1,84.69,10.27Z"/><path class="cls-2" d="M84.45,9.48a1,1,0,0,0,.82-1.15h0a3.67,3.67,0,0,0-.81-1.91,6.81,6.81,0,0,1-.6,1.21A1.72,1.72,0,0,0,84.45,9.48Z"/><path class="cls-2" d="M83.5,6.82c.44-.15.63-.58.42-1.23a4.6,4.6,0,0,0-1-1.6,1.82,1.82,0,0,0-.14-.17h0a6.85,6.85,0,0,1-.2,1.27A2.13,2.13,0,0,0,83.5,6.82Z"/><path class="cls-2" d="M82.08,4.29c.34-.2.39-.64,0-1.27a6.1,6.1,0,0,0-1.47-1.61A6.18,6.18,0,0,1,80.8,2.7,2.64,2.64,0,0,0,82.08,4.29Z"/><path class="cls-2" d="M74.87,27.05c1.34-.44,2.16-1.17,1.76-2-.31-.63-.86-1.15-1.18-1.76a4.41,4.41,0,0,0-1.53,1.91A1.49,1.49,0,0,0,74.87,27.05Z"/><path class="cls-2" d="M77.77,24.82c1.16-.5,1.83-1.24,1.36-2-.35-.58-.92-1-1.28-1.61a3.86,3.86,0,0,0-1.17,1.93A1.54,1.54,0,0,0,77.77,24.82Z"/><path class="cls-2" d="M79.65,19h0a.15.15,0,0,1-.07.12,3.49,3.49,0,0,0-.76,1.8c0,.12.07.2.09.3a.6.6,0,0,0,.06.19,1.57,1.57,0,0,0,1,1.08c1-.54,1.51-1.28,1-2-.38-.54-.94-1-1.33-1.48Z"/><path class="cls-2" d="M82.35,17.94c-.41-.5-1-.87-1.39-1.36a3.31,3.31,0,0,0-.51,1.91,1.64,1.64,0,0,0,1.25,1.45C82.53,19.41,82.87,18.62,82.35,17.94Z"/><path class="cls-2" d="M83.19,15.41c-.43-.46-1-.79-1.43-1.24A3.51,3.51,0,0,0,81.55,16a1.72,1.72,0,0,0,1.32,1.29C83.55,16.74,83.79,16,83.19,15.41Z"/><path class="cls-2" d="M83.52,12.81c-.46-.43-1-.73-1.47-1.14a3.63,3.63,0,0,0,.08,1.82,1.79,1.79,0,0,0,1.38,1.22,1.27,1.27,0,0,0,.12-1.79A1.14,1.14,0,0,0,83.52,12.81Z"/><path class="cls-2" d="M81.87,9.2h0a4.09,4.09,0,0,0,.36,1.72A2,2,0,0,0,83.65,12a1.31,1.31,0,0,0-.27-1.83h0A17.76,17.76,0,0,1,81.87,9.2Z"/><path class="cls-2" d="M82.68,7.73c-.5-.37-1-.61-1.53-1h0v.11a4.46,4.46,0,0,0,.6,1.58,2.06,2.06,0,0,0,1.46,1A1.42,1.42,0,0,0,82.68,7.73Z"/><path class="cls-2" d="M81.53,5.24c-.52-.33-1-.55-1.57-.88A6,6,0,0,0,80.87,6a2.32,2.32,0,0,0,1.51.94A1.63,1.63,0,0,0,81.53,5.24Z"/><path class="cls-2" d="M80,2.89c-.54-.31-1.07-.5-1.62-.81a7.49,7.49,0,0,0,1.14,1.54A2.66,2.66,0,0,0,81,4.49,1.87,1.87,0,0,0,80,2.89Z"/><path class="cls-2" d="M80.34,2.41a1.41,1.41,0,0,0-.56-1.1,7.56,7.56,0,0,0-2-1.3h0a9.42,9.42,0,0,1,.75,1.4,3.19,3.19,0,0,0,1.81,1.33V2.48c7.27,10.35,3.84,20.3-8.41,26.63-2.77,1.43-2.65,1.8.07.37C84.37,23,87.8,12.91,80.34,2.41Z"/><text class="cls-9" transform="translate(59.62 8.23)">2019</text><g class="cls-4"><text class="cls-8" transform="translate(64.14 13.14)">BEST</text><text class="cls-8" transform="translate(61.5 16.42)">TRADING</text><text class="cls-8" transform="translate(59.14 19.7)">EXPERIENCE</text></g><path class="cls-2" d="M10.29,26.27c-1,.05-1.89.26-2.89.23h0l.1.08a6,6,0,0,0,2.73,1.64,3.14,3.14,0,0,0,2.94-.46A3.23,3.23,0,0,0,10.29,26.27Z"/><path class="cls-2" d="M10.2,25.47a2.59,2.59,0,0,0-2.31-1.7c-.91-.07-1.78,0-2.68-.11a4.84,4.84,0,0,0,2.21,1.91A3,3,0,0,0,10.2,25.47Z"/><path class="cls-2" d="M7.93,23a2.13,2.13,0,0,0-1.77-1.84C5.35,21,4.54,21,3.75,20.78a3.94,3.94,0,0,0,1.63,2A2.7,2.7,0,0,0,7.93,23Z"/><path class="cls-2" d="M6.15,20.42A1.79,1.79,0,0,0,4.91,18.5c-.7-.24-1.43-.33-2.09-.63a3.26,3.26,0,0,0,1.06,2.07A2.28,2.28,0,0,0,6.15,20.42Z"/><path class="cls-2" d="M4.93,17.73a1.57,1.57,0,0,0-.73-2,15.63,15.63,0,0,1-1.75-.84A2.93,2.93,0,0,0,3,17,1.89,1.89,0,0,0,4.93,17.73Z"/><path class="cls-2" d="M4.28,15c.33-.76.37-1.46-.25-1.95a12.52,12.52,0,0,1-1.38-1,2.94,2.94,0,0,0,.05,2A1.52,1.52,0,0,0,4.28,15Z"/><path class="cls-2" d="M4.18,12.3c.45-.69.63-1.36.18-1.9a10.54,10.54,0,0,1-1-1.13h0a4.68,4.68,0,0,0-.18.48A2.88,2.88,0,0,0,3,11.25,1.21,1.21,0,0,0,4.18,12.3Z"/><path class="cls-2" d="M4.6,9.61c.55-.62.85-1.25.59-1.83a7.57,7.57,0,0,1-.6-1.21,3.78,3.78,0,0,0-.81,1.88A1,1,0,0,0,4.6,9.61Z"/><path class="cls-2" d="M6.51,5.22A6.6,6.6,0,0,1,6.31,4,4.78,4.78,0,0,0,5.13,5.72c-.21.65,0,1.08.42,1.23A2.13,2.13,0,0,0,6.51,5.22Z"/><path class="cls-2" d="M8.25,2.81a6.61,6.61,0,0,1,.19-1.28,6,6,0,0,0-1.5,1.63c-.35.63-.31,1.07,0,1.27A2.7,2.7,0,0,0,8.25,2.81Z"/><path class="cls-2" d="M14.13,27.15a1.5,1.5,0,0,0,1-1.87,4.32,4.32,0,0,0-1.53-1.91c-.32.61-.87,1.13-1.18,1.76C12,26,12.8,26.71,14.13,27.15Z"/><path class="cls-2" d="M9.92,22.88c-.47.8.2,1.54,1.35,2a1.53,1.53,0,0,0,1.09-1.72,3.82,3.82,0,0,0-1.17-1.92C10.83,21.84,10.26,22.3,9.92,22.88Z"/><path class="cls-2" d="M9,22.55a1.61,1.61,0,0,0,1-1.09,1.21,1.21,0,0,0,.05-.18c0-.11.1-.19.09-.31a3.53,3.53,0,0,0-.83-1.92c-.39.52-1,.94-1.33,1.48C7.54,21.26,8.06,22,9,22.55Z"/><path class="cls-2" d="M7.34,20.05A1.64,1.64,0,0,0,8.6,18.6a3.34,3.34,0,0,0-.52-1.9c-.41.48-1,.85-1.38,1.35C6.14,18.73,6.52,19.47,7.34,20.05Z"/><path class="cls-2" d="M7.49,16.11a3.32,3.32,0,0,0-.2-1.86c-.45.44-1,.78-1.43,1.24-.6.63-.36,1.36.31,2A1.69,1.69,0,0,0,7.49,16.11Z"/><path class="cls-2" d="M5.54,14.83a1.79,1.79,0,0,0,1.37-1.22A3.52,3.52,0,0,0,7,11.79c-.46.41-1,.71-1.47,1.14A1.28,1.28,0,0,0,5.54,14.83Z"/><path class="cls-2" d="M5.43,12.21a1.92,1.92,0,0,0,1.41-1.12A3.86,3.86,0,0,0,7.2,9.37s0,0,0,0h0c-.48.38-1,.65-1.5,1A1.31,1.31,0,0,0,5.43,12.21Z"/><path class="cls-2" d="M5.81,9.62a2.12,2.12,0,0,0,1.46-1A4.32,4.32,0,0,0,7.86,7l0-.13h0c-.5.35-1,.59-1.53.95A1.43,1.43,0,0,0,5.81,9.62Z"/><path class="cls-2" d="M6.69,7.05a2.27,2.27,0,0,0,1.5-.94A5.72,5.72,0,0,0,9.08,4.5C8.56,4.82,8,5,7.52,5.37A1.62,1.62,0,0,0,6.69,7.05Z"/><path class="cls-2" d="M10.7,2.22c-.55.3-1.07.5-1.61.81A1.89,1.89,0,0,0,8,4.62a2.56,2.56,0,0,0,1.54-.86A7.55,7.55,0,0,0,10.7,2.22Z"/><path class="cls-2" d="M18.58,29.89C5.15,23.63,1.16,13.33,8.7,2.59c0,.08,0,.19,0,.26a3.33,3.33,0,0,0,1.81-1.33A9.17,9.17,0,0,1,11.24.19a7.66,7.66,0,0,0-2,1.3A1.42,1.42,0,0,0,8.7,2.58C1,13.38,4.93,23.75,18.29,30.17,20.71,31.34,21,31,18.58,29.89Z"/><path class="cls-2" d="M32.59,26.27a3.24,3.24,0,0,0-2.88,1.5,3.14,3.14,0,0,0,2.94.46,6,6,0,0,0,2.73-1.64l.1-.08h0C34.48,26.53,33.57,26.32,32.59,26.27Z"/><path class="cls-2" d="M32.68,25.47a3,3,0,0,0,2.78.1,4.79,4.79,0,0,0,2.21-1.91c-.9.14-1.77,0-2.67.11A2.59,2.59,0,0,0,32.68,25.47Z"/><path class="cls-2" d="M35,23a2.7,2.7,0,0,0,2.55-.21,3.94,3.94,0,0,0,1.63-2c-.79.23-1.6.23-2.41.39A2.13,2.13,0,0,0,35,23Z"/><path class="cls-2" d="M38,18.5a1.79,1.79,0,0,0-1.24,1.92A2.28,2.28,0,0,0,39,19.94a3.2,3.2,0,0,0,1-1.85c0-.08.06-.15.07-.22h0C39.4,18.17,38.67,18.26,38,18.5Z"/><path class="cls-2" d="M40.43,14.93h0a14.84,14.84,0,0,1-1.75.84,1.58,1.58,0,0,0-.73,2A1.89,1.89,0,0,0,39.89,17a3,3,0,0,0,.54-2s0,0,0-.07Z"/><path class="cls-2" d="M38.6,15a1.51,1.51,0,0,0,1.58-.91,2.88,2.88,0,0,0,0-2,12.52,12.52,0,0,1-1.38,1C38.23,13.56,38.27,14.26,38.6,15Z"/><path class="cls-2" d="M38.52,10.4c-.44.54-.26,1.21.18,1.9a1.21,1.21,0,0,0,1.21-1.05,2.88,2.88,0,0,0-.22-1.5,4.68,4.68,0,0,0-.18-.48h0A10.54,10.54,0,0,1,38.52,10.4Z"/><path class="cls-2" d="M38.28,9.61a1,1,0,0,0,.82-1.16,3.78,3.78,0,0,0-.81-1.88,7.57,7.57,0,0,1-.6,1.21C37.43,8.36,37.73,9,38.28,9.61Z"/><path class="cls-2" d="M37.33,7c.44-.15.63-.58.42-1.23a4.45,4.45,0,0,0-1-1.59c-.05-.06-.08-.12-.13-.17h0a5.91,5.91,0,0,1-.2,1.27A2.13,2.13,0,0,0,37.33,7Z"/><path class="cls-2" d="M35.91,4.43c.34-.2.39-.64,0-1.27a6.12,6.12,0,0,0-1.49-1.63,7.43,7.43,0,0,1,.18,1.28A2.7,2.7,0,0,0,35.91,4.43Z"/><path class="cls-2" d="M28.75,27.15c1.33-.44,2.16-1.17,1.75-2-.3-.63-.86-1.15-1.18-1.76a4.32,4.32,0,0,0-1.53,1.91A1.5,1.5,0,0,0,28.75,27.15Z"/><path class="cls-2" d="M31.61,24.92c1.16-.5,1.82-1.24,1.35-2-.34-.58-.91-1-1.27-1.6a3.73,3.73,0,0,0-1.16,1.92A1.53,1.53,0,0,0,31.61,24.92Z"/><path class="cls-2" d="M33.49,19.05h0a.83.83,0,0,0-.07.13A3.29,3.29,0,0,0,32.66,21c0,.12.07.2.09.31a1.21,1.21,0,0,0,0,.18,1.61,1.61,0,0,0,1,1.09c1-.54,1.5-1.29,1-2-.38-.54-.95-1-1.34-1.48Z"/><path class="cls-2" d="M36.18,18.05c-.4-.5-1-.87-1.38-1.35a3.42,3.42,0,0,0-.52,1.9,1.64,1.64,0,0,0,1.26,1.45C36.36,19.47,36.74,18.73,36.18,18.05Z"/><path class="cls-2" d="M37,15.49c-.43-.46-1-.8-1.42-1.24a3.32,3.32,0,0,0-.21,1.86,1.69,1.69,0,0,0,1.32,1.33C37.38,16.85,37.62,16.12,37,15.49Z"/><path class="cls-2" d="M37.35,12.93c-.46-.43-1-.73-1.47-1.14A3.52,3.52,0,0,0,36,13.61a1.79,1.79,0,0,0,1.37,1.22A1.27,1.27,0,0,0,37.35,12.93Z"/><path class="cls-2" d="M35.67,9.33h0s0,0,0,0A3.86,3.86,0,0,0,36,11.09a1.92,1.92,0,0,0,1.41,1.12,1.31,1.31,0,0,0-.28-1.84C36.7,10,36.16,9.71,35.67,9.33Z"/><path class="cls-2" d="M36.51,7.85c-.49-.36-1-.6-1.53-.95h0L35,7a4.51,4.51,0,0,0,.6,1.58,2.12,2.12,0,0,0,1.46,1A1.43,1.43,0,0,0,36.51,7.85Z"/><path class="cls-2" d="M35.37,5.37c-.52-.33-1-.55-1.57-.87a5.72,5.72,0,0,0,.89,1.61,2.29,2.29,0,0,0,1.5.94A1.63,1.63,0,0,0,35.37,5.37Z"/><path class="cls-2" d="M33.79,3c-.54-.31-1.06-.51-1.61-.81a7.94,7.94,0,0,0,1.14,1.54,2.56,2.56,0,0,0,1.54.86A1.89,1.89,0,0,0,33.79,3Z"/><path class="cls-2" d="M34.18,2.58a1.42,1.42,0,0,0-.57-1.09,7.6,7.6,0,0,0-2-1.3h0a10.36,10.36,0,0,1,.73,1.33,3.27,3.27,0,0,0,1.8,1.33c0-.07,0-.18,0-.26,7.25,10.33,3.83,20.27-8.4,26.58-2.77,1.43-2.65,1.8.07.37C38.19,23.08,41.63,13,34.18,2.58Z"/><text class="cls-10" transform="translate(13.49 8.35)">2019</text><text class="cls-11" transform="translate(18.24 13.25)">BEST<tspan x="-5.23" y="3.26">INVESTMENT</tspan><tspan x="-2.19" y="6.52">BROKER</tspan></text></svg>